<?xml version="1.0" standalone="yes"?>

<svg version="1.1" viewBox="0.0 0.0 960.0 720.0" fill="none" stroke="none" stroke-linecap="square" stroke-miterlimit="10" xmlns="http://www.w3.org/2000/svg" xmlns:xlink="http://www.w3.org/1999/xlink"><clipPath id="p.0"><path d="m0 0l960.0 0l0 720.0l-960.0 0l0 -720.0z" clip-rule="nonzero"></path></clipPath><g clip-path="url(#p.0)"><path fill="#000000" fill-opacity="0.0" d="m0 0l960.0 0l0 720.0l-960.0 0z" fill-rule="nonzero"></path><path fill="#00546c" d="m258.31497 131.04987l443.37003 0l0 76.0945l-443.37003 0z" fill-rule="nonzero"></path><path stroke="#000000" stroke-width="4.0" stroke-linejoin="round" stroke-linecap="butt" d="m258.31497 131.04987l443.37003 0l0 76.0945l-443.37003 0z" fill-rule="nonzero"></path><path fill="#ffffff" d="m422.9082 183.49712l0 -28.640625l5.78125 0l0 11.28125l11.328125 0l0 -11.28125l5.78125 0l0 28.640625l-5.78125 0l0 -12.515625l-11.328125 0l0 12.515625l-5.78125 0zm40.839844 -6.609375l5.46875 0.921875q-1.0625 3.015625 -3.34375 4.59375q-2.265625 1.5625 -5.6875 1.5625q-5.40625 0 -8.0 -3.53125q-2.0625 -2.84375 -2.0625 -7.15625q0 -5.15625 2.6875 -8.078125q2.703125 -2.921875 6.828125 -2.921875q4.625 0 7.296875 3.0625q2.6875 3.0625 2.5625 9.359375l-13.75 0q0.0625 2.453125 1.328125 3.8125q1.28125 1.34375 3.171875 1.34375q1.28125 0 2.15625 -0.703125q0.890625 -0.703125 1.34375 -2.265625zm0.3125 -5.546875q-0.0625 -2.375 -1.234375 -3.609375q-1.171875 -1.25 -2.859375 -1.25q-1.796875 0 -2.96875 1.3125q-1.171875 1.3125 -1.140625 3.546875l8.203125 0zm9.714844 12.15625l0 -28.640625l5.5 0l0 15.203125l6.421875 -7.3125l6.75 0l-7.078125 7.578125l7.59375 13.171875l-5.921875 0l-5.21875 -9.3125l-2.546875 2.671875l0 6.640625l-5.5 0zm34.464844 -6.609375l5.46875 0.921875q-1.0625 3.015625 -3.34375 4.59375q-2.265625 1.5625 -5.6875 1.5625q-5.40625 0 -8.0 -3.53125q-2.0625 -2.84375 -2.0625 -7.15625q0 -5.15625 2.6875 -8.078125q2.703125 -2.921875 6.828125 -2.921875q4.625 0 7.296875 3.0625q2.6875 3.0625 2.5625 9.359375l-13.75 0q0.0625 2.453125 1.328125 3.8125q1.28125 1.34375 3.171875 1.34375q1.28125 0 2.15625 -0.703125q0.890625 -0.703125 1.34375 -2.265625zm0.3125 -5.546875q-0.0625 -2.375 -1.234375 -3.609375q-1.171875 -1.25 -2.859375 -1.25q-1.796875 0 -2.96875 1.3125q-1.171875 1.3125 -1.140625 3.546875l8.203125 0zm19.433594 -8.59375l0 4.375l-3.75 0l0 8.359375q0 2.546875 0.09375 2.96875q0.109375 0.421875 0.484375 0.703125q0.390625 0.265625 0.9375 0.265625q0.765625 0 2.203125 -0.53125l0.46875 4.25q-1.90625 0.828125 -4.328125 0.828125q-1.484375 0 -2.6875 -0.5q-1.1875 -0.5 -1.75 -1.28125q-0.546875 -0.796875 -0.765625 -2.140625q-0.171875 -0.96875 -0.171875 -3.875l0 -9.046875l-2.515625 0l0 -4.375l2.515625 0l0 -4.109375l5.515625 -3.203125l0 7.3125l3.75 0zm3.8046875 -2.8125l0 -5.078125l5.484375 0l0 5.078125l-5.484375 0zm0 23.5625l0 -20.75l5.484375 0l0 20.75l-5.484375 0z" fill-rule="nonzero"></path><path fill="#004153" d="m258.31497 6.9160104l443.37003 0l0 76.09449l-443.37003 0z" fill-rule="nonzero"></path><path stroke="#000000" stroke-width="4.0" stroke-linejoin="round" stroke-linecap="butt" d="m258.31497 6.9160104l443.37003 0l0 76.09449l-443.37003 0z" fill-rule="nonzero"></path><path fill="#ffffff" d="m367.85547 48.832005l5.609375 1.78125q-1.296875 4.6875 -4.296875 6.96875q-3.0 2.265625 -7.609375 2.265625q-5.703125 0 -9.375 -3.890625q-3.671875 -3.90625 -3.671875 -10.65625q0 -7.15625 3.6875 -11.109375q3.703125 -3.953127 9.71875 -3.953127q5.25 0 8.53125 3.109377q1.953125 1.828125 2.9375 5.265625l-5.734375 1.375q-0.5 -2.234375 -2.109375 -3.515625q-1.609375 -1.296875 -3.921875 -1.296875q-3.1875 0 -5.171875 2.296875q-1.96875 2.28125 -1.96875 7.390625q0 5.4375 1.953125 7.75q1.953125 2.296875 5.078125 2.296875q2.296875 0 3.953125 -1.46875q1.671875 -1.46875 2.390625 -4.609375zm10.527344 10.53125l0 -28.640627l5.484375 0l0 28.640627l-5.484375 0zm9.847656 -10.671875q0 -2.734375 1.34375 -5.28125q1.34375 -2.5625 3.8125 -3.90625q2.46875 -1.359375 5.515625 -1.359375q4.71875 0 7.71875 3.0625q3.015625 3.0625 3.015625 7.71875q0 4.71875 -3.046875 7.8125q-3.03125 3.09375 -7.640625 3.09375q-2.859375 0 -5.453125 -1.28125q-2.578125 -1.296875 -3.921875 -3.78125q-1.34375 -2.5 -1.34375 -6.078125zm5.625 0.296875q0 3.09375 1.453125 4.734375q1.46875 1.640625 3.625 1.640625q2.140625 0 3.59375 -1.640625q1.453125 -1.640625 1.453125 -4.765625q0 -3.046875 -1.453125 -4.6875q-1.453125 -1.640625 -3.59375 -1.640625q-2.15625 0 -3.625 1.640625q-1.453125 1.640625 -1.453125 4.71875zm33.73047 10.375l0 -3.109375q-1.140625 1.65625 -2.984375 2.625q-1.84375 0.953125 -3.890625 0.953125q-2.09375 0 -3.765625 -0.921875q-1.65625 -0.921875 -2.40625 -2.578125q-0.734375 -1.65625 -0.734375 -4.59375l0 -13.125l5.5 0l0 9.53125q0 4.375 0.296875 5.375q0.296875 0.984375 1.09375 1.5625q0.8125 0.5625 2.046875 0.5625q1.40625 0 2.515625 -0.765625q1.109375 -0.765625 1.515625 -1.90625q0.421875 -1.15625 0.421875 -5.609375l0 -8.75l5.484375 0l0 20.75l-5.09375 0zm29.792969 0l-5.09375 0l0 -3.046875q-1.265625 1.78125 -3.0 2.65625q-1.71875 0.859375 -3.484375 0.859375q-3.578125 0 -6.125 -2.875q-2.546875 -2.890625 -2.546875 -8.046875q0 -5.265625 2.484375 -8.015625q2.484375 -2.75 6.265625 -2.75q3.484375 0 6.015625 2.890625l0 -10.312502l5.484375 0l0 28.640627zm-14.640625 -10.828125q0 3.328125 0.921875 4.8125q1.328125 2.140625 3.703125 2.140625q1.890625 0 3.21875 -1.609375q1.328125 -1.609375 1.328125 -4.8125q0 -3.578125 -1.296875 -5.140625q-1.28125 -1.578125 -3.28125 -1.578125q-1.953125 0 -3.28125 1.5625q-1.3125 1.546875 -1.3125 4.625zm29.75 1.515625l5.625 -0.546875q0.5 2.828125 2.046875 4.15625q1.5625 1.328125 4.203125 1.328125q2.78125 0 4.203125 -1.171875q1.421875 -1.1875 1.421875 -2.78125q0 -1.015625 -0.609375 -1.71875q-0.59375 -0.71875 -2.078125 -1.25q-1.015625 -0.34375 -4.625 -1.25q-4.640625 -1.140625 -6.515625 -2.828125q-2.640625 -2.359375 -2.640625 -5.765625q0 -2.1875 1.234375 -4.078125q1.25 -1.90625 3.578125 -2.906252q2.328125 -1.0 5.640625 -1.0q5.390625 0 8.109375 2.375002q2.71875 2.359375 2.859375 6.296875l-5.78125 0.25q-0.375 -2.203125 -1.59375 -3.171875q-1.21875 -0.96875 -3.65625 -0.96875q-2.515625 0 -3.953125 1.046875q-0.90625 0.65625 -0.90625 1.765625q0 1.015625 0.859375 1.75q1.09375 0.90625 5.3125 1.90625q4.21875 1.0 6.234375 2.0625q2.015625 1.0625 3.15625 2.90625q1.15625 1.84375 1.15625 4.5625q0 2.46875 -1.375 4.625q-1.359375 2.140625 -3.859375 3.1875q-2.5 1.046875 -6.234375 1.046875q-5.4375 0 -8.34375 -2.515625q-2.90625 -2.515625 -3.46875 -7.3125zm40.117188 2.703125l5.46875 0.921875q-1.0625 3.015625 -3.34375 4.59375q-2.265625 1.5625 -5.6875 1.5625q-5.40625 0 -8.0 -3.53125q-2.0625 -2.84375 -2.0625 -7.15625q0 -5.15625 2.6875 -8.078125q2.703125 -2.921875 6.828125 -2.921875q4.625 0 7.296875 3.0625q2.6875 3.0625 2.5625 9.359375l-13.75 0q0.0625 2.453125 1.328125 3.8125q1.28125 1.34375 3.171875 1.34375q1.28125 0 2.15625 -0.703125q0.890625 -0.703125 1.34375 -2.265625zm0.3125 -5.546875q-0.0625 -2.375 -1.234375 -3.609375q-1.171875 -1.25 -2.859375 -1.25q-1.796875 0 -2.96875 1.3125q-1.171875 1.3125 -1.140625 3.546875l8.203125 0zm15.167969 12.15625l-5.484375 0l0 -20.75l5.09375 0l0 2.953125q1.3125 -2.09375 2.359375 -2.75q1.046875 -0.671875 2.375 -0.671875q1.875 0 3.609375 1.046875l-1.703125 4.78125q-1.390625 -0.90625 -2.578125 -0.90625q-1.15625 0 -1.953125 0.640625q-0.796875 0.640625 -1.265625 2.296875q-0.453125 1.65625 -0.453125 6.953125l0 6.40625zm16.019531 0l-8.359375 -20.75l5.765625 0l3.90625 10.59375l1.125 3.53125q0.453125 -1.34375 0.5625 -1.78125q0.28125 -0.875 0.59375 -1.75l3.9375 -10.59375l5.65625 0l-8.25 20.75l-4.9375 0zm16.542969 -23.5625l0 -5.078127l5.484375 0l0 5.078127l-5.484375 0zm0 23.5625l0 -20.75l5.484375 0l0 20.75l-5.484375 0zm29.191406 -14.609375l-5.40625 0.96875q-0.265625 -1.609375 -1.234375 -2.421875q-0.96875 -0.828125 -2.515625 -0.828125q-2.046875 0 -3.265625 1.421875q-1.21875 1.40625 -1.21875 4.71875q0 3.703125 1.234375 5.234375q1.234375 1.515625 3.328125 1.515625q1.5625 0 2.5625 -0.890625q1.0 -0.890625 1.40625 -3.0625l5.390625 0.921875q-0.84375 3.703125 -3.234375 5.609375q-2.375 1.890625 -6.375 1.890625q-4.546875 0 -7.265625 -2.875q-2.703125 -2.875 -2.703125 -7.953125q0 -5.125 2.71875 -7.984375q2.71875 -2.875 7.34375 -2.875q3.796875 0 6.03125 1.640625q2.234375 1.625 3.203125 4.96875zm16.183594 8.0l5.46875 0.921875q-1.0625 3.015625 -3.34375 4.59375q-2.265625 1.5625 -5.6875 1.5625q-5.40625 0 -8.0 -3.53125q-2.0625 -2.84375 -2.0625 -7.15625q0 -5.15625 2.6875 -8.078125q2.703125 -2.921875 6.828125 -2.921875q4.625 0 7.296875 3.0625q2.6875 3.0625 2.5625 9.359375l-13.75 0q0.0625 2.453125 1.328125 3.8125q1.28125 1.34375 3.171875 1.34375q1.28125 0 2.15625 -0.703125q0.890625 -0.703125 1.34375 -2.265625zm0.3125 -5.546875q-0.0625 -2.375 -1.234375 -3.609375q-1.171875 -1.25 -2.859375 -1.25q-1.796875 0 -2.96875 1.3125q-1.171875 1.3125 -1.140625 3.546875l8.203125 0z" fill-rule="nonzero"></path><path fill="#007191" d="m300.97638 255.18373l278.04724 0l0 157.35432l-278.04724 0z" fill-rule="nonzero"></path><path stroke="#000000" stroke-width="4.0" stroke-linejoin="round" stroke-linecap="butt" d="m300.97638 255.18373l278.04724 0l0 157.35432l-278.04724 0z" fill-rule="nonzero"></path><path fill="#ffffff" d="m360.6582 313.72964l0 -4.828125l12.453125 0l0 11.40625q-1.8125 1.765625 -5.265625 3.109375q-3.4375 1.328125 -6.96875 1.328125q-4.5 0 -7.84375 -1.875q-3.328125 -1.890625 -5.015625 -5.390625q-1.671875 -3.515625 -1.671875 -7.640625q0 -4.46875 1.875 -7.9375q1.875 -3.484375 5.484375 -5.34375q2.75 -1.421875 6.859375 -1.421875q5.328125 0 8.328125 2.234375q3.0 2.234375 3.859375 6.1875l-5.75 1.078125q-0.609375 -2.109375 -2.28125 -3.328125q-1.65625 -1.234375 -4.15625 -1.234375q-3.796875 0 -6.03125 2.40625q-2.234375 2.40625 -2.234375 7.125q0 5.109375 2.265625 7.65625q2.265625 2.546875 5.9375 2.546875q1.8125 0 3.640625 -0.703125q1.828125 -0.71875 3.140625 -1.734375l0 -3.640625l-6.625 0zm17.753906 10.53125l0 -28.640625l5.484375 0l0 28.640625l-5.484375 0zm24.769531 0l0 -3.109375q-1.140625 1.65625 -2.984375 2.625q-1.84375 0.953125 -3.890625 0.953125q-2.09375 0 -3.765625 -0.921875q-1.65625 -0.921875 -2.40625 -2.578125q-0.734375 -1.65625 -0.734375 -4.59375l0 -13.125l5.5 0l0 9.53125q0 4.375 0.296875 5.375q0.296875 0.984375 1.09375 1.5625q0.8125 0.5625 2.046875 0.5625q1.40625 0 2.515625 -0.765625q1.109375 -0.765625 1.515625 -1.90625q0.421875 -1.15625 0.421875 -5.609375l0 -8.75l5.484375 0l0 20.75l-5.09375 0zm8.839844 -5.921875l5.515625 -0.84375q0.34375 1.609375 1.421875 2.4375q1.078125 0.828125 3.0 0.828125q2.140625 0 3.203125 -0.78125q0.734375 -0.546875 0.734375 -1.46875q0 -0.625 -0.390625 -1.03125q-0.421875 -0.390625 -1.84375 -0.71875q-6.640625 -1.46875 -8.421875 -2.671875q-2.453125 -1.6875 -2.453125 -4.671875q0 -2.703125 2.125 -4.53125q2.125 -1.84375 6.609375 -1.84375q4.25 0 6.3125 1.390625q2.078125 1.390625 2.859375 4.109375l-5.171875 0.953125q-0.328125 -1.21875 -1.265625 -1.859375q-0.921875 -0.640625 -2.640625 -0.640625q-2.171875 0 -3.109375 0.609375q-0.625 0.421875 -0.625 1.109375q0 0.578125 0.546875 1.0q0.75 0.546875 5.125 1.546875q4.390625 0.984375 6.125 2.4375q1.71875 1.453125 1.71875 4.078125q0 2.84375 -2.390625 4.90625q-2.375 2.046875 -7.046875 2.046875q-4.234375 0 -6.703125 -1.71875q-2.46875 -1.71875 -3.234375 -4.671875zm33.69922 -14.828125l0 4.375l-3.75 0l0 8.359375q0 2.546875 0.09375 2.96875q0.109375 0.421875 0.484375 0.703125q0.390625 0.265625 0.9375 0.265625q0.765625 0 2.203125 -0.53125l0.46875 4.25q-1.90625 0.828125 -4.328125 0.828125q-1.484375 0 -2.6875 -0.5q-1.1875 -0.5 -1.75 -1.28125q-0.546875 -0.796875 -0.765625 -2.140625q-0.171875 -0.96875 -0.171875 -3.875l0 -9.046875l-2.515625 0l0 -4.375l2.515625 0l0 -4.109375l5.515625 -3.203125l0 7.3125l3.75 0zm15.8203125 14.140625l5.46875 0.921875q-1.0625 3.015625 -3.34375 4.59375q-2.265625 1.5625 -5.6875 1.5625q-5.40625 0 -8.0 -3.53125q-2.0625 -2.84375 -2.0625 -7.15625q0 -5.15625 2.6875 -8.078125q2.703125 -2.921875 6.828125 -2.921875q4.625 0 7.296875 3.0625q2.6875 3.0625 2.5625 9.359375l-13.75 0q0.0625 2.453125 1.328125 3.8125q1.28125 1.34375 3.171875 1.34375q1.28125 0 2.15625 -0.703125q0.890625 -0.703125 1.34375 -2.265625zm0.3125 -5.546875q-0.0625 -2.375 -1.234375 -3.609375q-1.171875 -1.25 -2.859375 -1.25q-1.796875 0 -2.96875 1.3125q-1.171875 1.3125 -1.140625 3.546875l8.203125 0zm15.167969 12.15625l-5.484375 0l0 -20.75l5.09375 0l0 2.953125q1.3125 -2.09375 2.359375 -2.75q1.046875 -0.671875 2.375 -0.671875q1.875 0 3.609375 1.046875l-1.703125 4.78125q-1.390625 -0.90625 -2.578125 -0.90625q-1.15625 0 -1.953125 0.640625q-0.796875 0.640625 -1.265625 2.296875q-0.453125 1.65625 -0.453125 6.953125l0 6.40625zm10.394531 0l0 -28.640625l19.625 0l0 4.84375l-13.84375 0l0 6.78125l11.953125 0l0 4.84375l-11.953125 0l0 12.171875l-5.78125 0zm22.933594 -9.3125l5.625 -0.546875q0.5 2.828125 2.046875 4.15625q1.5625 1.328125 4.203125 1.328125q2.78125 0 4.203125 -1.171875q1.421875 -1.1875 1.421875 -2.78125q0 -1.015625 -0.609375 -1.71875q-0.59375 -0.71875 -2.078125 -1.25q-1.015625 -0.34375 -4.625 -1.25q-4.640625 -1.140625 -6.515625 -2.828125q-2.640625 -2.359375 -2.640625 -5.765625q0 -2.1875 1.234375 -4.078125q1.25 -1.90625 3.578125 -2.90625q2.328125 -1.0 5.640625 -1.0q5.390625 0 8.109375 2.375q2.71875 2.359375 2.859375 6.296875l-5.78125 0.25q-0.375 -2.203125 -1.59375 -3.171875q-1.21875 -0.96875 -3.65625 -0.96875q-2.515625 0 -3.953125 1.046875q-0.90625 0.65625 -0.90625 1.765625q0 1.015625 0.859375 1.75q1.09375 0.90625 5.3125 1.90625q4.21875 1.0 6.234375 2.0625q2.015625 1.0625 3.15625 2.90625q1.15625 1.84375 1.15625 4.5625q0 2.46875 -1.375 4.625q-1.359375 2.140625 -3.859375 3.1875q-2.5 1.046875 -6.234375 1.046875q-5.4375 0 -8.34375 -2.515625q-2.90625 -2.515625 -3.46875 -7.3125z" fill-rule="nonzero"></path><path fill="#ffffff" d="m392.32812 361.72964l5.609375 1.78125q-1.296875 4.6875 -4.296875 6.96875q-3.0 2.265625 -7.609375 2.265625q-5.703125 0 -9.375 -3.890625q-3.671875 -3.90625 -3.671875 -10.65625q0 -7.15625 3.6875 -11.109375q3.703125 -3.953125 9.71875 -3.953125q5.25 0 8.53125 3.109375q1.953125 1.828125 2.9375 5.265625l-5.734375 1.375q-0.5 -2.234375 -2.109375 -3.515625q-1.609375 -1.296875 -3.921875 -1.296875q-3.1875 0 -5.171875 2.296875q-1.96875 2.28125 -1.96875 7.390625q0 5.4375 1.953125 7.75q1.953125 2.296875 5.078125 2.296875q2.296875 0 3.953125 -1.46875q1.671875 -1.46875 2.390625 -4.609375zm10.527344 10.53125l0 -28.640625l5.484375 0l0 28.640625l-5.484375 0zm24.769531 0l0 -3.109375q-1.140625 1.65625 -2.984375 2.625q-1.84375 0.953125 -3.890625 0.953125q-2.09375 0 -3.765625 -0.921875q-1.65625 -0.921875 -2.40625 -2.578125q-0.734375 -1.65625 -0.734375 -4.59375l0 -13.125l5.5 0l0 9.53125q0 4.375 0.296875 5.375q0.296875 0.984375 1.09375 1.5625q0.8125 0.5625 2.046875 0.5625q1.40625 0 2.515625 -0.765625q1.109375 -0.765625 1.515625 -1.90625q0.421875 -1.15625 0.421875 -5.609375l0 -8.75l5.484375 0l0 20.75l-5.09375 0zm8.839844 -5.921875l5.515625 -0.84375q0.34375 1.609375 1.421875 2.4375q1.078125 0.828125 3.0 0.828125q2.140625 0 3.203125 -0.78125q0.734375 -0.546875 0.734375 -1.46875q0 -0.625 -0.390625 -1.03125q-0.421875 -0.390625 -1.84375 -0.71875q-6.640625 -1.46875 -8.421875 -2.671875q-2.453125 -1.6875 -2.453125 -4.671875q0 -2.703125 2.125 -4.53125q2.125 -1.84375 6.609375 -1.84375q4.25 0 6.3125 1.390625q2.078125 1.390625 2.859375 4.109375l-5.171875 0.953125q-0.328125 -1.21875 -1.265625 -1.859375q-0.921875 -0.640625 -2.640625 -0.640625q-2.171875 0 -3.109375 0.609375q-0.625 0.421875 -0.625 1.109375q0 0.578125 0.546875 1.0q0.75 0.546875 5.125 1.546875q4.390625 0.984375 6.125 2.4375q1.71875 1.453125 1.71875 4.078125q0 2.84375 -2.390625 4.90625q-2.375 2.046875 -7.046875 2.046875q-4.234375 0 -6.703125 -1.71875q-2.46875 -1.71875 -3.234375 -4.671875zm33.69922 -14.828125l0 4.375l-3.75 0l0 8.359375q0 2.546875 0.09375 2.96875q0.109375 0.421875 0.484375 0.703125q0.390625 0.265625 0.9375 0.265625q0.765625 0 2.203125 -0.53125l0.46875 4.25q-1.90625 0.828125 -4.328125 0.828125q-1.484375 0 -2.6875 -0.5q-1.1875 -0.5 -1.75 -1.28125q-0.546875 -0.796875 -0.765625 -2.140625q-0.171875 -0.96875 -0.171875 -3.875l0 -9.046875l-2.515625 0l0 -4.375l2.515625 0l0 -4.109375l5.515625 -3.203125l0 7.3125l3.75 0zm15.8203125 14.140625l5.46875 0.921875q-1.0625 3.015625 -3.34375 4.59375q-2.265625 1.5625 -5.6875 1.5625q-5.40625 0 -8.0 -3.53125q-2.0625 -2.84375 -2.0625 -7.15625q0 -5.15625 2.6875 -8.078125q2.703125 -2.921875 6.828125 -2.921875q4.625 0 7.296875 3.0625q2.6875 3.0625 2.5625 9.359375l-13.75 0q0.0625 2.453125 1.328125 3.8125q1.28125 1.34375 3.171875 1.34375q1.28125 0 2.15625 -0.703125q0.890625 -0.703125 1.34375 -2.265625zm0.3125 -5.546875q-0.0625 -2.375 -1.234375 -3.609375q-1.171875 -1.25 -2.859375 -1.25q-1.796875 0 -2.96875 1.3125q-1.171875 1.3125 -1.140625 3.546875l8.203125 0zm15.167969 12.15625l-5.484375 0l0 -20.75l5.09375 0l0 2.953125q1.3125 -2.09375 2.359375 -2.75q1.046875 -0.671875 2.375 -0.671875q1.875 0 3.609375 1.046875l-1.703125 4.78125q-1.390625 -0.90625 -2.578125 -0.90625q-1.15625 0 -1.953125 0.640625q-0.796875 0.640625 -1.265625 2.296875q-0.453125 1.65625 -0.453125 6.953125l0 6.40625z" fill-rule="nonzero"></path><path fill="#007191" d="m316.97638 271.18372l278.04724 0l0 157.35434l-278.04724 0z" fill-rule="nonzero"></path><path stroke="#000000" stroke-width="4.0" stroke-linejoin="round" stroke-linecap="butt" d="m316.97638 271.18372l278.04724 0l0 157.35434l-278.04724 0z" fill-rule="nonzero"></path><path fill="#ffffff" d="m376.6582 329.72964l0 -4.828125l12.453125 0l0 11.40625q-1.8125 1.765625 -5.265625 3.109375q-3.4375 1.328125 -6.96875 1.328125q-4.5 0 -7.84375 -1.875q-3.328125 -1.890625 -5.015625 -5.390625q-1.671875 -3.515625 -1.671875 -7.640625q0 -4.46875 1.875 -7.9375q1.875 -3.484375 5.484375 -5.34375q2.75 -1.421875 6.859375 -1.421875q5.328125 0 8.328125 2.234375q3.0 2.234375 3.859375 6.1875l-5.75 1.078125q-0.609375 -2.109375 -2.28125 -3.328125q-1.65625 -1.234375 -4.15625 -1.234375q-3.796875 0 -6.03125 2.40625q-2.234375 2.40625 -2.234375 7.125q0 5.109375 2.265625 7.65625q2.265625 2.546875 5.9375 2.546875q1.8125 0 3.640625 -0.703125q1.828125 -0.71875 3.140625 -1.734375l0 -3.640625l-6.625 0zm17.753906 10.53125l0 -28.640625l5.484375 0l0 28.640625l-5.484375 0zm24.769531 0l0 -3.109375q-1.140625 1.65625 -2.984375 2.625q-1.84375 0.953125 -3.890625 0.953125q-2.09375 0 -3.765625 -0.921875q-1.65625 -0.921875 -2.40625 -2.578125q-0.734375 -1.65625 -0.734375 -4.59375l0 -13.125l5.5 0l0 9.53125q0 4.375 0.296875 5.375q0.296875 0.984375 1.09375 1.5625q0.8125 0.5625 2.046875 0.5625q1.40625 0 2.515625 -0.765625q1.109375 -0.765625 1.515625 -1.90625q0.421875 -1.15625 0.421875 -5.609375l0 -8.75l5.484375 0l0 20.75l-5.09375 0zm8.839844 -5.921875l5.515625 -0.84375q0.34375 1.609375 1.421875 2.4375q1.078125 0.828125 3.0 0.828125q2.140625 0 3.203125 -0.78125q0.734375 -0.546875 0.734375 -1.46875q0 -0.625 -0.390625 -1.03125q-0.421875 -0.390625 -1.84375 -0.71875q-6.640625 -1.46875 -8.421875 -2.671875q-2.453125 -1.6875 -2.453125 -4.671875q0 -2.703125 2.125 -4.53125q2.125 -1.84375 6.609375 -1.84375q4.25 0 6.3125 1.390625q2.078125 1.390625 2.859375 4.109375l-5.171875 0.953125q-0.328125 -1.21875 -1.265625 -1.859375q-0.921875 -0.640625 -2.640625 -0.640625q-2.171875 0 -3.109375 0.609375q-0.625 0.421875 -0.625 1.109375q0 0.578125 0.546875 1.0q0.75 0.546875 5.125 1.546875q4.390625 0.984375 6.125 2.4375q1.71875 1.453125 1.71875 4.078125q0 2.84375 -2.390625 4.90625q-2.375 2.046875 -7.046875 2.046875q-4.234375 0 -6.703125 -1.71875q-2.46875 -1.71875 -3.234375 -4.671875zm33.69922 -14.828125l0 4.375l-3.75 0l0 8.359375q0 2.546875 0.09375 2.96875q0.109375 0.421875 0.484375 0.703125q0.390625 0.265625 0.9375 0.265625q0.765625 0 2.203125 -0.53125l0.46875 4.25q-1.90625 0.828125 -4.328125 0.828125q-1.484375 0 -2.6875 -0.5q-1.1875 -0.5 -1.75 -1.28125q-0.546875 -0.796875 -0.765625 -2.140625q-0.171875 -0.96875 -0.171875 -3.875l0 -9.046875l-2.515625 0l0 -4.375l2.515625 0l0 -4.109375l5.515625 -3.203125l0 7.3125l3.75 0zm15.8203125 14.140625l5.46875 0.921875q-1.0625 3.015625 -3.34375 4.59375q-2.265625 1.5625 -5.6875 1.5625q-5.40625 0 -8.0 -3.53125q-2.0625 -2.84375 -2.0625 -7.15625q0 -5.15625 2.6875 -8.078125q2.703125 -2.921875 6.828125 -2.921875q4.625 0 7.296875 3.0625q2.6875 3.0625 2.5625 9.359375l-13.75 0q0.0625 2.453125 1.328125 3.8125q1.28125 1.34375 3.171875 1.34375q1.28125 0 2.15625 -0.703125q0.890625 -0.703125 1.34375 -2.265625zm0.3125 -5.546875q-0.0625 -2.375 -1.234375 -3.609375q-1.171875 -1.25 -2.859375 -1.25q-1.796875 0 -2.96875 1.3125q-1.171875 1.3125 -1.140625 3.546875l8.203125 0zm15.167969 12.15625l-5.484375 0l0 -20.75l5.09375 0l0 2.953125q1.3125 -2.09375 2.359375 -2.75q1.046875 -0.671875 2.375 -0.671875q1.875 0 3.609375 1.046875l-1.703125 4.78125q-1.390625 -0.90625 -2.578125 -0.90625q-1.15625 0 -1.953125 0.640625q-0.796875 0.640625 -1.265625 2.296875q-0.453125 1.65625 -0.453125 6.953125l0 6.40625zm10.394531 0l0 -28.640625l19.625 0l0 4.84375l-13.84375 0l0 6.78125l11.953125 0l0 4.84375l-11.953125 0l0 12.171875l-5.78125 0zm22.933594 -9.3125l5.625 -0.546875q0.5 2.828125 2.046875 4.15625q1.5625 1.328125 4.203125 1.328125q2.78125 0 4.203125 -1.171875q1.421875 -1.1875 1.421875 -2.78125q0 -1.015625 -0.609375 -1.71875q-0.59375 -0.71875 -2.078125 -1.25q-1.015625 -0.34375 -4.625 -1.25q-4.640625 -1.140625 -6.515625 -2.828125q-2.640625 -2.359375 -2.640625 -5.765625q0 -2.1875 1.234375 -4.078125q1.25 -1.90625 3.578125 -2.90625q2.328125 -1.0 5.640625 -1.0q5.390625 0 8.109375 2.375q2.71875 2.359375 2.859375 6.296875l-5.78125 0.25q-0.375 -2.203125 -1.59375 -3.171875q-1.21875 -0.96875 -3.65625 -0.96875q-2.515625 0 -3.953125 1.046875q-0.90625 0.65625 -0.90625 1.765625q0 1.015625 0.859375 1.75q1.09375 0.90625 5.3125 1.90625q4.21875 1.0 6.234375 2.0625q2.015625 1.0625 3.15625 2.90625q1.15625 1.84375 1.15625 4.5625q0 2.46875 -1.375 4.625q-1.359375 2.140625 -3.859375 3.1875q-2.5 1.046875 -6.234375 1.046875q-5.4375 0 -8.34375 -2.515625q-2.90625 -2.515625 -3.46875 -7.3125z" fill-rule="nonzero"></path><path fill="#ffffff" d="m408.32812 377.72964l5.609375 1.78125q-1.296875 4.6875 -4.296875 6.96875q-3.0 2.265625 -7.609375 2.265625q-5.703125 0 -9.375 -3.890625q-3.671875 -3.90625 -3.671875 -10.65625q0 -7.15625 3.6875 -11.109375q3.703125 -3.953125 9.71875 -3.953125q5.25 0 8.53125 3.109375q1.953125 1.828125 2.9375 5.265625l-5.734375 1.375q-0.5 -2.234375 -2.109375 -3.515625q-1.609375 -1.296875 -3.921875 -1.296875q-3.1875 0 -5.171875 2.296875q-1.96875 2.28125 -1.96875 7.390625q0 5.4375 1.953125 7.75q1.953125 2.296875 5.078125 2.296875q2.296875 0 3.953125 -1.46875q1.671875 -1.46875 2.390625 -4.609375zm10.527344 10.53125l0 -28.640625l5.484375 0l0 28.640625l-5.484375 0zm24.769531 0l0 -3.109375q-1.140625 1.65625 -2.984375 2.625q-1.84375 0.953125 -3.890625 0.953125q-2.09375 0 -3.765625 -0.921875q-1.65625 -0.921875 -2.40625 -2.578125q-0.734375 -1.65625 -0.734375 -4.59375l0 -13.125l5.5 0l0 9.53125q0 4.375 0.296875 5.375q0.296875 0.984375 1.09375 1.5625q0.8125 0.5625 2.046875 0.5625q1.40625 0 2.515625 -0.765625q1.109375 -0.765625 1.515625 -1.90625q0.421875 -1.15625 0.421875 -5.609375l0 -8.75l5.484375 0l0 20.75l-5.09375 0zm8.839844 -5.921875l5.515625 -0.84375q0.34375 1.609375 1.421875 2.4375q1.078125 0.828125 3.0 0.828125q2.140625 0 3.203125 -0.78125q0.734375 -0.546875 0.734375 -1.46875q0 -0.625 -0.390625 -1.03125q-0.421875 -0.390625 -1.84375 -0.71875q-6.640625 -1.46875 -8.421875 -2.671875q-2.453125 -1.6875 -2.453125 -4.671875q0 -2.703125 2.125 -4.53125q2.125 -1.84375 6.609375 -1.84375q4.25 0 6.3125 1.390625q2.078125 1.390625 2.859375 4.109375l-5.171875 0.953125q-0.328125 -1.21875 -1.265625 -1.859375q-0.921875 -0.640625 -2.640625 -0.640625q-2.171875 0 -3.109375 0.609375q-0.625 0.421875 -0.625 1.109375q0 0.578125 0.546875 1.0q0.75 0.546875 5.125 1.546875q4.390625 0.984375 6.125 2.4375q1.71875 1.453125 1.71875 4.078125q0 2.84375 -2.390625 4.90625q-2.375 2.046875 -7.046875 2.046875q-4.234375 0 -6.703125 -1.71875q-2.46875 -1.71875 -3.234375 -4.671875zm33.69922 -14.828125l0 4.375l-3.75 0l0 8.359375q0 2.546875 0.09375 2.96875q0.109375 0.421875 0.484375 0.703125q0.390625 0.265625 0.9375 0.265625q0.765625 0 2.203125 -0.53125l0.46875 4.25q-1.90625 0.828125 -4.328125 0.828125q-1.484375 0 -2.6875 -0.5q-1.1875 -0.5 -1.75 -1.28125q-0.546875 -0.796875 -0.765625 -2.140625q-0.171875 -0.96875 -0.171875 -3.875l0 -9.046875l-2.515625 0l0 -4.375l2.515625 0l0 -4.109375l5.515625 -3.203125l0 7.3125l3.75 0zm15.8203125 14.140625l5.46875 0.921875q-1.0625 3.015625 -3.34375 4.59375q-2.265625 1.5625 -5.6875 1.5625q-5.40625 0 -8.0 -3.53125q-2.0625 -2.84375 -2.0625 -7.15625q0 -5.15625 2.6875 -8.078125q2.703125 -2.921875 6.828125 -2.921875q4.625 0 7.296875 3.0625q2.6875 3.0625 2.5625 9.359375l-13.75 0q0.0625 2.453125 1.328125 3.8125q1.28125 1.34375 3.171875 1.34375q1.28125 0 2.15625 -0.703125q0.890625 -0.703125 1.34375 -2.265625zm0.3125 -5.546875q-0.0625 -2.375 -1.234375 -3.609375q-1.171875 -1.25 -2.859375 -1.25q-1.796875 0 -2.96875 1.3125q-1.171875 1.3125 -1.140625 3.546875l8.203125 0zm15.167969 12.15625l-5.484375 0l0 -20.75l5.09375 0l0 2.953125q1.3125 -2.09375 2.359375 -2.75q1.046875 -0.671875 2.375 -0.671875q1.875 0 3.609375 1.046875l-1.703125 4.78125q-1.390625 -0.90625 -2.578125 -0.90625q-1.15625 0 -1.953125 0.640625q-0.796875 0.640625 -1.265625 2.296875q-0.453125 1.65625 -0.453125 6.953125l0 6.40625z" fill-rule="nonzero"></path><path fill="#007191" d="m332.97638 287.18372l278.04724 0l0 157.35434l-278.04724 0z" fill-rule="nonzero"></path><path stroke="#000000" stroke-width="4.0" stroke-linejoin="round" stroke-linecap="butt" d="m332.97638 287.18372l278.04724 0l0 157.35434l-278.04724 0z" fill-rule="nonzero"></path><path fill="#ffffff" d="m392.6582 345.72964l0 -4.828125l12.453125 0l0 11.40625q-1.8125 1.765625 -5.265625 3.109375q-3.4375 1.328125 -6.96875 1.328125q-4.5 0 -7.84375 -1.875q-3.328125 -1.890625 -5.015625 -5.390625q-1.671875 -3.515625 -1.671875 -7.640625q0 -4.46875 1.875 -7.9375q1.875 -3.484375 5.484375 -5.34375q2.75 -1.421875 6.859375 -1.421875q5.328125 0 8.328125 2.234375q3.0 2.234375 3.859375 6.1875l-5.75 1.078125q-0.609375 -2.109375 -2.28125 -3.328125q-1.65625 -1.234375 -4.15625 -1.234375q-3.796875 0 -6.03125 2.40625q-2.234375 2.40625 -2.234375 7.125q0 5.109375 2.265625 7.65625q2.265625 2.546875 5.9375 2.546875q1.8125 0 3.640625 -0.703125q1.828125 -0.71875 3.140625 -1.734375l0 -3.640625l-6.625 0zm17.753906 10.53125l0 -28.640625l5.484375 0l0 28.640625l-5.484375 0zm24.769531 0l0 -3.109375q-1.140625 1.65625 -2.984375 2.625q-1.84375 0.953125 -3.890625 0.953125q-2.09375 0 -3.765625 -0.921875q-1.65625 -0.921875 -2.40625 -2.578125q-0.734375 -1.65625 -0.734375 -4.59375l0 -13.125l5.5 0l0 9.53125q0 4.375 0.296875 5.375q0.296875 0.984375 1.09375 1.5625q0.8125 0.5625 2.046875 0.5625q1.40625 0 2.515625 -0.765625q1.109375 -0.765625 1.515625 -1.90625q0.421875 -1.15625 0.421875 -5.609375l0 -8.75l5.484375 0l0 20.75l-5.09375 0zm8.839844 -5.921875l5.515625 -0.84375q0.34375 1.609375 1.421875 2.4375q1.078125 0.828125 3.0 0.828125q2.140625 0 3.203125 -0.78125q0.734375 -0.546875 0.734375 -1.46875q0 -0.625 -0.390625 -1.03125q-0.421875 -0.390625 -1.84375 -0.71875q-6.640625 -1.46875 -8.421875 -2.671875q-2.453125 -1.6875 -2.453125 -4.671875q0 -2.703125 2.125 -4.53125q2.125 -1.84375 6.609375 -1.84375q4.25 0 6.3125 1.390625q2.078125 1.390625 2.859375 4.109375l-5.171875 0.953125q-0.328125 -1.21875 -1.265625 -1.859375q-0.921875 -0.640625 -2.640625 -0.640625q-2.171875 0 -3.109375 0.609375q-0.625 0.421875 -0.625 1.109375q0 0.578125 0.546875 1.0q0.75 0.546875 5.125 1.546875q4.390625 0.984375 6.125 2.4375q1.71875 1.453125 1.71875 4.078125q0 2.84375 -2.390625 4.90625q-2.375 2.046875 -7.046875 2.046875q-4.234375 0 -6.703125 -1.71875q-2.46875 -1.71875 -3.234375 -4.671875zm33.69922 -14.828125l0 4.375l-3.75 0l0 8.359375q0 2.546875 0.09375 2.96875q0.109375 0.421875 0.484375 0.703125q0.390625 0.265625 0.9375 0.265625q0.765625 0 2.203125 -0.53125l0.46875 4.25q-1.90625 0.828125 -4.328125 0.828125q-1.484375 0 -2.6875 -0.5q-1.1875 -0.5 -1.75 -1.28125q-0.546875 -0.796875 -0.765625 -2.140625q-0.171875 -0.96875 -0.171875 -3.875l0 -9.046875l-2.515625 0l0 -4.375l2.515625 0l0 -4.109375l5.515625 -3.203125l0 7.3125l3.75 0zm15.8203125 14.140625l5.46875 0.921875q-1.0625 3.015625 -3.34375 4.59375q-2.265625 1.5625 -5.6875 1.5625q-5.40625 0 -8.0 -3.53125q-2.0625 -2.84375 -2.0625 -7.15625q0 -5.15625 2.6875 -8.078125q2.703125 -2.921875 6.828125 -2.921875q4.625 0 7.296875 3.0625q2.6875 3.0625 2.5625 9.359375l-13.75 0q0.0625 2.453125 1.328125 3.8125q1.28125 1.34375 3.171875 1.34375q1.28125 0 2.15625 -0.703125q0.890625 -0.703125 1.34375 -2.265625zm0.3125 -5.546875q-0.0625 -2.375 -1.234375 -3.609375q-1.171875 -1.25 -2.859375 -1.25q-1.796875 0 -2.96875 1.3125q-1.171875 1.3125 -1.140625 3.546875l8.203125 0zm15.167969 12.15625l-5.484375 0l0 -20.75l5.09375 0l0 2.953125q1.3125 -2.09375 2.359375 -2.75q1.046875 -0.671875 2.375 -0.671875q1.875 0 3.609375 1.046875l-1.703125 4.78125q-1.390625 -0.90625 -2.578125 -0.90625q-1.15625 0 -1.953125 0.640625q-0.796875 0.640625 -1.265625 2.296875q-0.453125 1.65625 -0.453125 6.953125l0 6.40625zm10.394531 0l0 -28.640625l19.625 0l0 4.84375l-13.84375 0l0 6.78125l11.953125 0l0 4.84375l-11.953125 0l0 12.171875l-5.78125 0zm22.933594 -9.3125l5.625 -0.546875q0.5 2.828125 2.046875 4.15625q1.5625 1.328125 4.203125 1.328125q2.78125 0 4.203125 -1.171875q1.421875 -1.1875 1.421875 -2.78125q0 -1.015625 -0.609375 -1.71875q-0.59375 -0.71875 -2.078125 -1.25q-1.015625 -0.34375 -4.625 -1.25q-4.640625 -1.140625 -6.515625 -2.828125q-2.640625 -2.359375 -2.640625 -5.765625q0 -2.1875 1.234375 -4.078125q1.25 -1.90625 3.578125 -2.90625q2.328125 -1.0 5.640625 -1.0q5.390625 0 8.109375 2.375q2.71875 2.359375 2.859375 6.296875l-5.78125 0.25q-0.375 -2.203125 -1.59375 -3.171875q-1.21875 -0.96875 -3.65625 -0.96875q-2.515625 0 -3.953125 1.046875q-0.90625 0.65625 -0.90625 1.765625q0 1.015625 0.859375 1.75q1.09375 0.90625 5.3125 1.90625q4.21875 1.0 6.234375 2.0625q2.015625 1.0625 3.15625 2.90625q1.15625 1.84375 1.15625 4.5625q0 2.46875 -1.375 4.625q-1.359375 2.140625 -3.859375 3.1875q-2.5 1.046875 -6.234375 1.046875q-5.4375 0 -8.34375 -2.515625q-2.90625 -2.515625 -3.46875 -7.3125z" fill-rule="nonzero"></path><path fill="#ffffff" d="m424.32812 393.72964l5.609375 1.78125q-1.296875 4.6875 -4.296875 6.96875q-3.0 2.265625 -7.609375 2.265625q-5.703125 0 -9.375 -3.890625q-3.671875 -3.90625 -3.671875 -10.65625q0 -7.15625 3.6875 -11.109375q3.703125 -3.953125 9.71875 -3.953125q5.25 0 8.53125 3.109375q1.953125 1.828125 2.9375 5.265625l-5.734375 1.375q-0.5 -2.234375 -2.109375 -3.515625q-1.609375 -1.296875 -3.921875 -1.296875q-3.1875 0 -5.171875 2.296875q-1.96875 2.28125 -1.96875 7.390625q0 5.4375 1.953125 7.75q1.953125 2.296875 5.078125 2.296875q2.296875 0 3.953125 -1.46875q1.671875 -1.46875 2.390625 -4.609375zm10.527344 10.53125l0 -28.640625l5.484375 0l0 28.640625l-5.484375 0zm24.769531 0l0 -3.109375q-1.140625 1.65625 -2.984375 2.625q-1.84375 0.953125 -3.890625 0.953125q-2.09375 0 -3.765625 -0.921875q-1.65625 -0.921875 -2.40625 -2.578125q-0.734375 -1.65625 -0.734375 -4.59375l0 -13.125l5.5 0l0 9.53125q0 4.375 0.296875 5.375q0.296875 0.984375 1.09375 1.5625q0.8125 0.5625 2.046875 0.5625q1.40625 0 2.515625 -0.765625q1.109375 -0.765625 1.515625 -1.90625q0.421875 -1.15625 0.421875 -5.609375l0 -8.75l5.484375 0l0 20.75l-5.09375 0zm8.839844 -5.921875l5.515625 -0.84375q0.34375 1.609375 1.421875 2.4375q1.078125 0.828125 3.0 0.828125q2.140625 0 3.203125 -0.78125q0.734375 -0.546875 0.734375 -1.46875q0 -0.625 -0.390625 -1.03125q-0.421875 -0.390625 -1.84375 -0.71875q-6.640625 -1.46875 -8.421875 -2.671875q-2.453125 -1.6875 -2.453125 -4.671875q0 -2.703125 2.125 -4.53125q2.125 -1.84375 6.609375 -1.84375q4.25 0 6.3125 1.390625q2.078125 1.390625 2.859375 4.109375l-5.171875 0.953125q-0.328125 -1.21875 -1.265625 -1.859375q-0.921875 -0.640625 -2.640625 -0.640625q-2.171875 0 -3.109375 0.609375q-0.625 0.421875 -0.625 1.109375q0 0.578125 0.546875 1.0q0.75 0.546875 5.125 1.546875q4.390625 0.984375 6.125 2.4375q1.71875 1.453125 1.71875 4.078125q0 2.84375 -2.390625 4.90625q-2.375 2.046875 -7.046875 2.046875q-4.234375 0 -6.703125 -1.71875q-2.46875 -1.71875 -3.234375 -4.671875zm33.69922 -14.828125l0 4.375l-3.75 0l0 8.359375q0 2.546875 0.09375 2.96875q0.109375 0.421875 0.484375 0.703125q0.390625 0.265625 0.9375 0.265625q0.765625 0 2.203125 -0.53125l0.46875 4.25q-1.90625 0.828125 -4.328125 0.828125q-1.484375 0 -2.6875 -0.5q-1.1875 -0.5 -1.75 -1.28125q-0.546875 -0.796875 -0.765625 -2.140625q-0.171875 -0.96875 -0.171875 -3.875l0 -9.046875l-2.515625 0l0 -4.375l2.515625 0l0 -4.109375l5.515625 -3.203125l0 7.3125l3.75 0zm15.8203125 14.140625l5.46875 0.921875q-1.0625 3.015625 -3.34375 4.59375q-2.265625 1.5625 -5.6875 1.5625q-5.40625 0 -8.0 -3.53125q-2.0625 -2.84375 -2.0625 -7.15625q0 -5.15625 2.6875 -8.078125q2.703125 -2.921875 6.828125 -2.921875q4.625 0 7.296875 3.0625q2.6875 3.0625 2.5625 9.359375l-13.75 0q0.0625 2.453125 1.328125 3.8125q1.28125 1.34375 3.171875 1.34375q1.28125 0 2.15625 -0.703125q0.890625 -0.703125 1.34375 -2.265625zm0.3125 -5.546875q-0.0625 -2.375 -1.234375 -3.609375q-1.171875 -1.25 -2.859375 -1.25q-1.796875 0 -2.96875 1.3125q-1.171875 1.3125 -1.140625 3.546875l8.203125 0zm15.167969 12.15625l-5.484375 0l0 -20.75l5.09375 0l0 2.953125q1.3125 -2.09375 2.359375 -2.75q1.046875 -0.671875 2.375 -0.671875q1.875 0 3.609375 1.046875l-1.703125 4.78125q-1.390625 -0.90625 -2.578125 -0.90625q-1.15625 0 -1.953125 0.640625q-0.796875 0.640625 -1.265625 2.296875q-0.453125 1.65625 -0.453125 6.953125l0 6.40625z" fill-rule="nonzero"></path><path fill="#007191" d="m348.97638 303.18372l278.04724 0l0 157.35434l-278.04724 0z" fill-rule="nonzero"></path><path stroke="#000000" stroke-width="4.0" stroke-linejoin="round" stroke-linecap="butt" d="m348.97638 303.18372l278.04724 0l0 157.35434l-278.04724 0z" fill-rule="nonzero"></path><path fill="#ffffff" d="m408.6582 361.72964l0 -4.828125l12.453125 0l0 11.40625q-1.8125 1.765625 -5.265625 3.109375q-3.4375 1.328125 -6.96875 1.328125q-4.5 0 -7.84375 -1.875q-3.328125 -1.890625 -5.015625 -5.390625q-1.671875 -3.515625 -1.671875 -7.640625q0 -4.46875 1.875 -7.9375q1.875 -3.484375 5.484375 -5.34375q2.75 -1.421875 6.859375 -1.421875q5.328125 0 8.328125 2.234375q3.0 2.234375 3.859375 6.1875l-5.75 1.078125q-0.609375 -2.109375 -2.28125 -3.328125q-1.65625 -1.234375 -4.15625 -1.234375q-3.796875 0 -6.03125 2.40625q-2.234375 2.40625 -2.234375 7.125q0 5.109375 2.265625 7.65625q2.265625 2.546875 5.9375 2.546875q1.8125 0 3.640625 -0.703125q1.828125 -0.71875 3.140625 -1.734375l0 -3.640625l-6.625 0zm17.753906 10.53125l0 -28.640625l5.484375 0l0 28.640625l-5.484375 0zm24.769531 0l0 -3.109375q-1.140625 1.65625 -2.984375 2.625q-1.84375 0.953125 -3.890625 0.953125q-2.09375 0 -3.765625 -0.921875q-1.65625 -0.921875 -2.40625 -2.578125q-0.734375 -1.65625 -0.734375 -4.59375l0 -13.125l5.5 0l0 9.53125q0 4.375 0.296875 5.375q0.296875 0.984375 1.09375 1.5625q0.8125 0.5625 2.046875 0.5625q1.40625 0 2.515625 -0.765625q1.109375 -0.765625 1.515625 -1.90625q0.421875 -1.15625 0.421875 -5.609375l0 -8.75l5.484375 0l0 20.75l-5.09375 0zm8.839844 -5.921875l5.515625 -0.84375q0.34375 1.609375 1.421875 2.4375q1.078125 0.828125 3.0 0.828125q2.140625 0 3.203125 -0.78125q0.734375 -0.546875 0.734375 -1.46875q0 -0.625 -0.390625 -1.03125q-0.421875 -0.390625 -1.84375 -0.71875q-6.640625 -1.46875 -8.421875 -2.671875q-2.453125 -1.6875 -2.453125 -4.671875q0 -2.703125 2.125 -4.53125q2.125 -1.84375 6.609375 -1.84375q4.25 0 6.3125 1.390625q2.078125 1.390625 2.859375 4.109375l-5.171875 0.953125q-0.328125 -1.21875 -1.265625 -1.859375q-0.921875 -0.640625 -2.640625 -0.640625q-2.171875 0 -3.109375 0.609375q-0.625 0.421875 -0.625 1.109375q0 0.578125 0.546875 1.0q0.75 0.546875 5.125 1.546875q4.390625 0.984375 6.125 2.4375q1.71875 1.453125 1.71875 4.078125q0 2.84375 -2.390625 4.90625q-2.375 2.046875 -7.046875 2.046875q-4.234375 0 -6.703125 -1.71875q-2.46875 -1.71875 -3.234375 -4.671875zm33.69922 -14.828125l0 4.375l-3.75 0l0 8.359375q0 2.546875 0.09375 2.96875q0.109375 0.421875 0.484375 0.703125q0.390625 0.265625 0.9375 0.265625q0.765625 0 2.203125 -0.53125l0.46875 4.25q-1.90625 0.828125 -4.328125 0.828125q-1.484375 0 -2.6875 -0.5q-1.1875 -0.5 -1.75 -1.28125q-0.546875 -0.796875 -0.765625 -2.140625q-0.171875 -0.96875 -0.171875 -3.875l0 -9.046875l-2.515625 0l0 -4.375l2.515625 0l0 -4.109375l5.515625 -3.203125l0 7.3125l3.75 0zm15.8203125 14.140625l5.46875 0.921875q-1.0625 3.015625 -3.34375 4.59375q-2.265625 1.5625 -5.6875 1.5625q-5.40625 0 -8.0 -3.53125q-2.0625 -2.84375 -2.0625 -7.15625q0 -5.15625 2.6875 -8.078125q2.703125 -2.921875 6.828125 -2.921875q4.625 0 7.296875 3.0625q2.6875 3.0625 2.5625 9.359375l-13.75 0q0.0625 2.453125 1.328125 3.8125q1.28125 1.34375 3.171875 1.34375q1.28125 0 2.15625 -0.703125q0.890625 -0.703125 1.34375 -2.265625zm0.3125 -5.546875q-0.0625 -2.375 -1.234375 -3.609375q-1.171875 -1.25 -2.859375 -1.25q-1.796875 0 -2.96875 1.3125q-1.171875 1.3125 -1.140625 3.546875l8.203125 0zm15.167969 12.15625l-5.484375 0l0 -20.75l5.09375 0l0 2.953125q1.3125 -2.09375 2.359375 -2.75q1.046875 -0.671875 2.375 -0.671875q1.875 0 3.609375 1.046875l-1.703125 4.78125q-1.390625 -0.90625 -2.578125 -0.90625q-1.15625 0 -1.953125 0.640625q-0.796875 0.640625 -1.265625 2.296875q-0.453125 1.65625 -0.453125 6.953125l0 6.40625zm10.394531 0l0 -28.640625l19.625 0l0 4.84375l-13.84375 0l0 6.78125l11.953125 0l0 4.84375l-11.953125 0l0 12.171875l-5.78125 0zm22.933594 -9.3125l5.625 -0.546875q0.5 2.828125 2.046875 4.15625q1.5625 1.328125 4.203125 1.328125q2.78125 0 4.203125 -1.171875q1.421875 -1.1875 1.421875 -2.78125q0 -1.015625 -0.609375 -1.71875q-0.59375 -0.71875 -2.078125 -1.25q-1.015625 -0.34375 -4.625 -1.25q-4.640625 -1.140625 -6.515625 -2.828125q-2.640625 -2.359375 -2.640625 -5.765625q0 -2.1875 1.234375 -4.078125q1.25 -1.90625 3.578125 -2.90625q2.328125 -1.0 5.640625 -1.0q5.390625 0 8.109375 2.375q2.71875 2.359375 2.859375 6.296875l-5.78125 0.25q-0.375 -2.203125 -1.59375 -3.171875q-1.21875 -0.96875 -3.65625 -0.96875q-2.515625 0 -3.953125 1.046875q-0.90625 0.65625 -0.90625 1.765625q0 1.015625 0.859375 1.75q1.09375 0.90625 5.3125 1.90625q4.21875 1.0 6.234375 2.0625q2.015625 1.0625 3.15625 2.90625q1.15625 1.84375 1.15625 4.5625q0 2.46875 -1.375 4.625q-1.359375 2.140625 -3.859375 3.1875q-2.5 1.046875 -6.234375 1.046875q-5.4375 0 -8.34375 -2.515625q-2.90625 -2.515625 -3.46875 -7.3125z" fill-rule="nonzero"></path><path fill="#ffffff" d="m440.32812 409.72964l5.609375 1.78125q-1.296875 4.6875 -4.296875 6.96875q-3.0 2.265625 -7.609375 2.265625q-5.703125 0 -9.375 -3.890625q-3.671875 -3.90625 -3.671875 -10.65625q0 -7.15625 3.6875 -11.109375q3.703125 -3.953125 9.71875 -3.953125q5.25 0 8.53125 3.109375q1.953125 1.828125 2.9375 5.265625l-5.734375 1.375q-0.5 -2.234375 -2.109375 -3.515625q-1.609375 -1.296875 -3.921875 -1.296875q-3.1875 0 -5.171875 2.296875q-1.96875 2.28125 -1.96875 7.390625q0 5.4375 1.953125 7.75q1.953125 2.296875 5.078125 2.296875q2.296875 0 3.953125 -1.46875q1.671875 -1.46875 2.390625 -4.609375zm10.527344 10.53125l0 -28.640625l5.484375 0l0 28.640625l-5.484375 0zm24.769531 0l0 -3.109375q-1.140625 1.65625 -2.984375 2.625q-1.84375 0.953125 -3.890625 0.953125q-2.09375 0 -3.765625 -0.921875q-1.65625 -0.921875 -2.40625 -2.578125q-0.734375 -1.65625 -0.734375 -4.59375l0 -13.125l5.5 0l0 9.53125q0 4.375 0.296875 5.375q0.296875 0.984375 1.09375 1.5625q0.8125 0.5625 2.046875 0.5625q1.40625 0 2.515625 -0.765625q1.109375 -0.765625 1.515625 -1.90625q0.421875 -1.15625 0.421875 -5.609375l0 -8.75l5.484375 0l0 20.75l-5.09375 0zm8.839844 -5.921875l5.515625 -0.84375q0.34375 1.609375 1.421875 2.4375q1.078125 0.828125 3.0 0.828125q2.140625 0 3.203125 -0.78125q0.734375 -0.546875 0.734375 -1.46875q0 -0.625 -0.390625 -1.03125q-0.421875 -0.390625 -1.84375 -0.71875q-6.640625 -1.46875 -8.421875 -2.671875q-2.453125 -1.6875 -2.453125 -4.671875q0 -2.703125 2.125 -4.53125q2.125 -1.84375 6.609375 -1.84375q4.25 0 6.3125 1.390625q2.078125 1.390625 2.859375 4.109375l-5.171875 0.953125q-0.328125 -1.21875 -1.265625 -1.859375q-0.921875 -0.640625 -2.640625 -0.640625q-2.171875 0 -3.109375 0.609375q-0.625 0.421875 -0.625 1.109375q0 0.578125 0.546875 1.0q0.75 0.546875 5.125 1.546875q4.390625 0.984375 6.125 2.4375q1.71875 1.453125 1.71875 4.078125q0 2.84375 -2.390625 4.90625q-2.375 2.046875 -7.046875 2.046875q-4.234375 0 -6.703125 -1.71875q-2.46875 -1.71875 -3.234375 -4.671875zm33.69922 -14.828125l0 4.375l-3.75 0l0 8.359375q0 2.546875 0.09375 2.96875q0.109375 0.421875 0.484375 0.703125q0.390625 0.265625 0.9375 0.265625q0.765625 0 2.203125 -0.53125l0.46875 4.25q-1.90625 0.828125 -4.328125 0.828125q-1.484375 0 -2.6875 -0.5q-1.1875 -0.5 -1.75 -1.28125q-0.546875 -0.796875 -0.765625 -2.140625q-0.171875 -0.96875 -0.171875 -3.875l0 -9.046875l-2.515625 0l0 -4.375l2.515625 0l0 -4.109375l5.515625 -3.203125l0 7.3125l3.75 0zm15.8203125 14.140625l5.46875 0.921875q-1.0625 3.015625 -3.34375 4.59375q-2.265625 1.5625 -5.6875 1.5625q-5.40625 0 -8.0 -3.53125q-2.0625 -2.84375 -2.0625 -7.15625q0 -5.15625 2.6875 -8.078125q2.703125 -2.921875 6.828125 -2.921875q4.625 0 7.296875 3.0625q2.6875 3.0625 2.5625 9.359375l-13.75 0q0.0625 2.453125 1.328125 3.8125q1.28125 1.34375 3.171875 1.34375q1.28125 0 2.15625 -0.703125q0.890625 -0.703125 1.34375 -2.265625zm0.3125 -5.546875q-0.0625 -2.375 -1.234375 -3.609375q-1.171875 -1.25 -2.859375 -1.25q-1.796875 0 -2.96875 1.3125q-1.171875 1.3125 -1.140625 3.546875l8.203125 0zm15.167969 12.15625l-5.484375 0l0 -20.75l5.09375 0l0 2.953125q1.3125 -2.09375 2.359375 -2.75q1.046875 -0.671875 2.375 -0.671875q1.875 0 3.609375 1.046875l-1.703125 4.78125q-1.390625 -0.90625 -2.578125 -0.90625q-1.15625 0 -1.953125 0.640625q-0.796875 0.640625 -1.265625 2.296875q-0.453125 1.65625 -0.453125 6.953125l0 6.40625z" fill-rule="nonzero"></path><path fill="#007191" d="m364.97638 319.18372l278.04724 0l0 157.35434l-278.04724 0z" fill-rule="nonzero"></path><path stroke="#000000" stroke-width="4.0" stroke-linejoin="round" stroke-linecap="butt" d="m364.97638 319.18372l278.04724 0l0 157.35434l-278.04724 0z" fill-rule="nonzero"></path><path fill="#ffffff" d="m424.6582 377.72964l0 -4.828125l12.453125 0l0 11.40625q-1.8125 1.765625 -5.265625 3.109375q-3.4375 1.328125 -6.96875 1.328125q-4.5 0 -7.84375 -1.875q-3.328125 -1.890625 -5.015625 -5.390625q-1.671875 -3.515625 -1.671875 -7.640625q0 -4.46875 1.875 -7.9375q1.875 -3.484375 5.484375 -5.34375q2.75 -1.421875 6.859375 -1.421875q5.328125 0 8.328125 2.234375q3.0 2.234375 3.859375 6.1875l-5.75 1.078125q-0.609375 -2.109375 -2.28125 -3.328125q-1.65625 -1.234375 -4.15625 -1.234375q-3.796875 0 -6.03125 2.40625q-2.234375 2.40625 -2.234375 7.125q0 5.109375 2.265625 7.65625q2.265625 2.546875 5.9375 2.546875q1.8125 0 3.640625 -0.703125q1.828125 -0.71875 3.140625 -1.734375l0 -3.640625l-6.625 0zm17.753906 10.53125l0 -28.640625l5.484375 0l0 28.640625l-5.484375 0zm24.769531 0l0 -3.109375q-1.140625 1.65625 -2.984375 2.625q-1.84375 0.953125 -3.890625 0.953125q-2.09375 0 -3.765625 -0.921875q-1.65625 -0.921875 -2.40625 -2.578125q-0.734375 -1.65625 -0.734375 -4.59375l0 -13.125l5.5 0l0 9.53125q0 4.375 0.296875 5.375q0.296875 0.984375 1.09375 1.5625q0.8125 0.5625 2.046875 0.5625q1.40625 0 2.515625 -0.765625q1.109375 -0.765625 1.515625 -1.90625q0.421875 -1.15625 0.421875 -5.609375l0 -8.75l5.484375 0l0 20.75l-5.09375 0zm8.839844 -5.921875l5.515625 -0.84375q0.34375 1.609375 1.421875 2.4375q1.078125 0.828125 3.0 0.828125q2.140625 0 3.203125 -0.78125q0.734375 -0.546875 0.734375 -1.46875q0 -0.625 -0.390625 -1.03125q-0.421875 -0.390625 -1.84375 -0.71875q-6.640625 -1.46875 -8.421875 -2.671875q-2.453125 -1.6875 -2.453125 -4.671875q0 -2.703125 2.125 -4.53125q2.125 -1.84375 6.609375 -1.84375q4.25 0 6.3125 1.390625q2.078125 1.390625 2.859375 4.109375l-5.171875 0.953125q-0.328125 -1.21875 -1.265625 -1.859375q-0.921875 -0.640625 -2.640625 -0.640625q-2.171875 0 -3.109375 0.609375q-0.625 0.421875 -0.625 1.109375q0 0.578125 0.546875 1.0q0.75 0.546875 5.125 1.546875q4.390625 0.984375 6.125 2.4375q1.71875 1.453125 1.71875 4.078125q0 2.84375 -2.390625 4.90625q-2.375 2.046875 -7.046875 2.046875q-4.234375 0 -6.703125 -1.71875q-2.46875 -1.71875 -3.234375 -4.671875zm33.69922 -14.828125l0 4.375l-3.75 0l0 8.359375q0 2.546875 0.09375 2.96875q0.109375 0.421875 0.484375 0.703125q0.390625 0.265625 0.9375 0.265625q0.765625 0 2.203125 -0.53125l0.46875 4.25q-1.90625 0.828125 -4.328125 0.828125q-1.484375 0 -2.6875 -0.5q-1.1875 -0.5 -1.75 -1.28125q-0.546875 -0.796875 -0.765625 -2.140625q-0.171875 -0.96875 -0.171875 -3.875l0 -9.046875l-2.515625 0l0 -4.375l2.515625 0l0 -4.109375l5.515625 -3.203125l0 7.3125l3.75 0zm15.8203125 14.140625l5.46875 0.921875q-1.0625 3.015625 -3.34375 4.59375q-2.265625 1.5625 -5.6875 1.5625q-5.40625 0 -8.0 -3.53125q-2.0625 -2.84375 -2.0625 -7.15625q0 -5.15625 2.6875 -8.078125q2.703125 -2.921875 6.828125 -2.921875q4.625 0 7.296875 3.0625q2.6875 3.0625 2.5625 9.359375l-13.75 0q0.0625 2.453125 1.328125 3.8125q1.28125 1.34375 3.171875 1.34375q1.28125 0 2.15625 -0.703125q0.890625 -0.703125 1.34375 -2.265625zm0.3125 -5.546875q-0.0625 -2.375 -1.234375 -3.609375q-1.171875 -1.25 -2.859375 -1.25q-1.796875 0 -2.96875 1.3125q-1.171875 1.3125 -1.140625 3.546875l8.203125 0zm15.167969 12.15625l-5.484375 0l0 -20.75l5.09375 0l0 2.953125q1.3125 -2.09375 2.359375 -2.75q1.046875 -0.671875 2.375 -0.671875q1.875 0 3.609375 1.046875l-1.703125 4.78125q-1.390625 -0.90625 -2.578125 -0.90625q-1.15625 0 -1.953125 0.640625q-0.796875 0.640625 -1.265625 2.296875q-0.453125 1.65625 -0.453125 6.953125l0 6.40625zm10.394531 0l0 -28.640625l19.625 0l0 4.84375l-13.84375 0l0 6.78125l11.953125 0l0 4.84375l-11.953125 0l0 12.171875l-5.78125 0zm22.933594 -9.3125l5.625 -0.546875q0.5 2.828125 2.046875 4.15625q1.5625 1.328125 4.203125 1.328125q2.78125 0 4.203125 -1.171875q1.421875 -1.1875 1.421875 -2.78125q0 -1.015625 -0.609375 -1.71875q-0.59375 -0.71875 -2.078125 -1.25q-1.015625 -0.34375 -4.625 -1.25q-4.640625 -1.140625 -6.515625 -2.828125q-2.640625 -2.359375 -2.640625 -5.765625q0 -2.1875 1.234375 -4.078125q1.25 -1.90625 3.578125 -2.90625q2.328125 -1.0 5.640625 -1.0q5.390625 0 8.109375 2.375q2.71875 2.359375 2.859375 6.296875l-5.78125 0.25q-0.375 -2.203125 -1.59375 -3.171875q-1.21875 -0.96875 -3.65625 -0.96875q-2.515625 0 -3.953125 1.046875q-0.90625 0.65625 -0.90625 1.765625q0 1.015625 0.859375 1.75q1.09375 0.90625 5.3125 1.90625q4.21875 1.0 6.234375 2.0625q2.015625 1.0625 3.15625 2.90625q1.15625 1.84375 1.15625 4.5625q0 2.46875 -1.375 4.625q-1.359375 2.140625 -3.859375 3.1875q-2.5 1.046875 -6.234375 1.046875q-5.4375 0 -8.34375 -2.515625q-2.90625 -2.515625 -3.46875 -7.3125z" fill-rule="nonzero"></path><path fill="#ffffff" d="m456.32812 425.72964l5.609375 1.78125q-1.296875 4.6875 -4.296875 6.96875q-3.0 2.265625 -7.609375 2.265625q-5.703125 0 -9.375 -3.890625q-3.671875 -3.90625 -3.671875 -10.65625q0 -7.15625 3.6875 -11.109375q3.703125 -3.953125 9.71875 -3.953125q5.25 0 8.53125 3.109375q1.953125 1.828125 2.9375 5.265625l-5.734375 1.375q-0.5 -2.234375 -2.109375 -3.515625q-1.609375 -1.296875 -3.921875 -1.296875q-3.1875 0 -5.171875 2.296875q-1.96875 2.28125 -1.96875 7.390625q0 5.4375 1.953125 7.75q1.953125 2.296875 5.078125 2.296875q2.296875 0 3.953125 -1.46875q1.671875 -1.46875 2.390625 -4.609375zm10.527344 10.53125l0 -28.640625l5.484375 0l0 28.640625l-5.484375 0zm24.769531 0l0 -3.109375q-1.140625 1.65625 -2.984375 2.625q-1.84375 0.953125 -3.890625 0.953125q-2.09375 0 -3.765625 -0.921875q-1.65625 -0.921875 -2.40625 -2.578125q-0.734375 -1.65625 -0.734375 -4.59375l0 -13.125l5.5 0l0 9.53125q0 4.375 0.296875 5.375q0.296875 0.984375 1.09375 1.5625q0.8125 0.5625 2.046875 0.5625q1.40625 0 2.515625 -0.765625q1.109375 -0.765625 1.515625 -1.90625q0.421875 -1.15625 0.421875 -5.609375l0 -8.75l5.484375 0l0 20.75l-5.09375 0zm8.839844 -5.921875l5.515625 -0.84375q0.34375 1.609375 1.421875 2.4375q1.078125 0.828125 3.0 0.828125q2.140625 0 3.203125 -0.78125q0.734375 -0.546875 0.734375 -1.46875q0 -0.625 -0.390625 -1.03125q-0.421875 -0.390625 -1.84375 -0.71875q-6.640625 -1.46875 -8.421875 -2.671875q-2.453125 -1.6875 -2.453125 -4.671875q0 -2.703125 2.125 -4.53125q2.125 -1.84375 6.609375 -1.84375q4.25 0 6.3125 1.390625q2.078125 1.390625 2.859375 4.109375l-5.171875 0.953125q-0.328125 -1.21875 -1.265625 -1.859375q-0.921875 -0.640625 -2.640625 -0.640625q-2.171875 0 -3.109375 0.609375q-0.625 0.421875 -0.625 1.109375q0 0.578125 0.546875 1.0q0.75 0.546875 5.125 1.546875q4.390625 0.984375 6.125 2.4375q1.71875 1.453125 1.71875 4.078125q0 2.84375 -2.390625 4.90625q-2.375 2.046875 -7.046875 2.046875q-4.234375 0 -6.703125 -1.71875q-2.46875 -1.71875 -3.234375 -4.671875zm33.69922 -14.828125l0 4.375l-3.75 0l0 8.359375q0 2.546875 0.09375 2.96875q0.109375 0.421875 0.484375 0.703125q0.390625 0.265625 0.9375 0.265625q0.765625 0 2.203125 -0.53125l0.46875 4.25q-1.90625 0.828125 -4.328125 0.828125q-1.484375 0 -2.6875 -0.5q-1.1875 -0.5 -1.75 -1.28125q-0.546875 -0.796875 -0.765625 -2.140625q-0.171875 -0.96875 -0.171875 -3.875l0 -9.046875l-2.515625 0l0 -4.375l2.515625 0l0 -4.109375l5.515625 -3.203125l0 7.3125l3.75 0zm15.8203125 14.140625l5.46875 0.921875q-1.0625 3.015625 -3.34375 4.59375q-2.265625 1.5625 -5.6875 1.5625q-5.40625 0 -8.0 -3.53125q-2.0625 -2.84375 -2.0625 -7.15625q0 -5.15625 2.6875 -8.078125q2.703125 -2.921875 6.828125 -2.921875q4.625 0 7.296875 3.0625q2.6875 3.0625 2.5625 9.359375l-13.75 0q0.0625 2.453125 1.328125 3.8125q1.28125 1.34375 3.171875 1.34375q1.28125 0 2.15625 -0.703125q0.890625 -0.703125 1.34375 -2.265625zm0.3125 -5.546875q-0.0625 -2.375 -1.234375 -3.609375q-1.171875 -1.25 -2.859375 -1.25q-1.796875 0 -2.96875 1.3125q-1.171875 1.3125 -1.140625 3.546875l8.203125 0zm15.167969 12.15625l-5.484375 0l0 -20.75l5.09375 0l0 2.953125q1.3125 -2.09375 2.359375 -2.75q1.046875 -0.671875 2.375 -0.671875q1.875 0 3.609375 1.046875l-1.703125 4.78125q-1.390625 -0.90625 -2.578125 -0.90625q-1.15625 0 -1.953125 0.640625q-0.796875 0.640625 -1.265625 2.296875q-0.453125 1.65625 -0.453125 6.953125l0 6.40625z" fill-rule="nonzero"></path><path fill="#007191" d="m380.97638 335.18372l278.04724 0l0 157.35434l-278.04724 0z" fill-rule="nonzero"></path><path stroke="#000000" stroke-width="4.0" stroke-linejoin="round" stroke-linecap="butt" d="m380.97638 335.18372l278.04724 0l0 157.35434l-278.04724 0z" fill-rule="nonzero"></path><path fill="#ffffff" d="m440.6582 393.72964l0 -4.828125l12.453125 0l0 11.40625q-1.8125 1.765625 -5.265625 3.109375q-3.4375 1.328125 -6.96875 1.328125q-4.5 0 -7.84375 -1.875q-3.328125 -1.890625 -5.015625 -5.390625q-1.671875 -3.515625 -1.671875 -7.640625q0 -4.46875 1.875 -7.9375q1.875 -3.484375 5.484375 -5.34375q2.75 -1.421875 6.859375 -1.421875q5.328125 0 8.328125 2.234375q3.0 2.234375 3.859375 6.1875l-5.75 1.078125q-0.609375 -2.109375 -2.28125 -3.328125q-1.65625 -1.234375 -4.15625 -1.234375q-3.796875 0 -6.03125 2.40625q-2.234375 2.40625 -2.234375 7.125q0 5.109375 2.265625 7.65625q2.265625 2.546875 5.9375 2.546875q1.8125 0 3.640625 -0.703125q1.828125 -0.71875 3.140625 -1.734375l0 -3.640625l-6.625 0zm17.753906 10.53125l0 -28.640625l5.484375 0l0 28.640625l-5.484375 0zm24.769531 0l0 -3.109375q-1.140625 1.65625 -2.984375 2.625q-1.84375 0.953125 -3.890625 0.953125q-2.09375 0 -3.765625 -0.921875q-1.65625 -0.921875 -2.40625 -2.578125q-0.734375 -1.65625 -0.734375 -4.59375l0 -13.125l5.5 0l0 9.53125q0 4.375 0.296875 5.375q0.296875 0.984375 1.09375 1.5625q0.8125 0.5625 2.046875 0.5625q1.40625 0 2.515625 -0.765625q1.109375 -0.765625 1.515625 -1.90625q0.421875 -1.15625 0.421875 -5.609375l0 -8.75l5.484375 0l0 20.75l-5.09375 0zm8.839844 -5.921875l5.515625 -0.84375q0.34375 1.609375 1.421875 2.4375q1.078125 0.828125 3.0 0.828125q2.140625 0 3.203125 -0.78125q0.734375 -0.546875 0.734375 -1.46875q0 -0.625 -0.390625 -1.03125q-0.421875 -0.390625 -1.84375 -0.71875q-6.640625 -1.46875 -8.421875 -2.671875q-2.453125 -1.6875 -2.453125 -4.671875q0 -2.703125 2.125 -4.53125q2.125 -1.84375 6.609375 -1.84375q4.25 0 6.3125 1.390625q2.078125 1.390625 2.859375 4.109375l-5.171875 0.953125q-0.328125 -1.21875 -1.265625 -1.859375q-0.921875 -0.640625 -2.640625 -0.640625q-2.171875 0 -3.109375 0.609375q-0.625 0.421875 -0.625 1.109375q0 0.578125 0.546875 1.0q0.75 0.546875 5.125 1.546875q4.390625 0.984375 6.125 2.4375q1.71875 1.453125 1.71875 4.078125q0 2.84375 -2.390625 4.90625q-2.375 2.046875 -7.046875 2.046875q-4.234375 0 -6.703125 -1.71875q-2.46875 -1.71875 -3.234375 -4.671875zm33.69922 -14.828125l0 4.375l-3.75 0l0 8.359375q0 2.546875 0.09375 2.96875q0.109375 0.421875 0.484375 0.703125q0.390625 0.265625 0.9375 0.265625q0.765625 0 2.203125 -0.53125l0.46875 4.25q-1.90625 0.828125 -4.328125 0.828125q-1.484375 0 -2.6875 -0.5q-1.1875 -0.5 -1.75 -1.28125q-0.546875 -0.796875 -0.765625 -2.140625q-0.171875 -0.96875 -0.171875 -3.875l0 -9.046875l-2.515625 0l0 -4.375l2.515625 0l0 -4.109375l5.515625 -3.203125l0 7.3125l3.75 0zm15.8203125 14.140625l5.46875 0.921875q-1.0625 3.015625 -3.34375 4.59375q-2.265625 1.5625 -5.6875 1.5625q-5.40625 0 -8.0 -3.53125q-2.0625 -2.84375 -2.0625 -7.15625q0 -5.15625 2.6875 -8.078125q2.703125 -2.921875 6.828125 -2.921875q4.625 0 7.296875 3.0625q2.6875 3.0625 2.5625 9.359375l-13.75 0q0.0625 2.453125 1.328125 3.8125q1.28125 1.34375 3.171875 1.34375q1.28125 0 2.15625 -0.703125q0.890625 -0.703125 1.34375 -2.265625zm0.3125 -5.546875q-0.0625 -2.375 -1.234375 -3.609375q-1.171875 -1.25 -2.859375 -1.25q-1.796875 0 -2.96875 1.3125q-1.171875 1.3125 -1.140625 3.546875l8.203125 0zm15.167969 12.15625l-5.484375 0l0 -20.75l5.09375 0l0 2.953125q1.3125 -2.09375 2.359375 -2.75q1.046875 -0.671875 2.375 -0.671875q1.875 0 3.609375 1.046875l-1.703125 4.78125q-1.390625 -0.90625 -2.578125 -0.90625q-1.15625 0 -1.953125 0.640625q-0.796875 0.640625 -1.265625 2.296875q-0.453125 1.65625 -0.453125 6.953125l0 6.40625zm10.394531 0l0 -28.640625l19.625 0l0 4.84375l-13.84375 0l0 6.78125l11.953125 0l0 4.84375l-11.953125 0l0 12.171875l-5.78125 0zm22.933594 -9.3125l5.625 -0.546875q0.5 2.828125 2.046875 4.15625q1.5625 1.328125 4.203125 1.328125q2.78125 0 4.203125 -1.171875q1.421875 -1.1875 1.421875 -2.78125q0 -1.015625 -0.609375 -1.71875q-0.59375 -0.71875 -2.078125 -1.25q-1.015625 -0.34375 -4.625 -1.25q-4.640625 -1.140625 -6.515625 -2.828125q-2.640625 -2.359375 -2.640625 -5.765625q0 -2.1875 1.234375 -4.078125q1.25 -1.90625 3.578125 -2.90625q2.328125 -1.0 5.640625 -1.0q5.390625 0 8.109375 2.375q2.71875 2.359375 2.859375 6.296875l-5.78125 0.25q-0.375 -2.203125 -1.59375 -3.171875q-1.21875 -0.96875 -3.65625 -0.96875q-2.515625 0 -3.953125 1.046875q-0.90625 0.65625 -0.90625 1.765625q0 1.015625 0.859375 1.75q1.09375 0.90625 5.3125 1.90625q4.21875 1.0 6.234375 2.0625q2.015625 1.0625 3.15625 2.90625q1.15625 1.84375 1.15625 4.5625q0 2.46875 -1.375 4.625q-1.359375 2.140625 -3.859375 3.1875q-2.5 1.046875 -6.234375 1.046875q-5.4375 0 -8.34375 -2.515625q-2.90625 -2.515625 -3.46875 -7.3125z" fill-rule="nonzero"></path><path fill="#ffffff" d="m461.20508 441.72964l5.609375 1.78125q-1.296875 4.6875 -4.296875 6.96875q-3.0 2.265625 -7.609375 2.265625q-5.703125 0 -9.375 -3.890625q-3.671875 -3.90625 -3.671875 -10.65625q0 -7.15625 3.6875 -11.109375q3.703125 -3.953125 9.71875 -3.953125q5.25 0 8.53125 3.109375q1.953125 1.828125 2.9375 5.265625l-5.734375 1.375q-0.5 -2.234375 -2.109375 -3.515625q-1.609375 -1.296875 -3.921875 -1.296875q-3.1875 0 -5.171875 2.296875q-1.96875 2.28125 -1.96875 7.390625q0 5.4375 1.953125 7.75q1.953125 2.296875 5.078125 2.296875q2.296875 0 3.953125 -1.46875q1.671875 -1.46875 2.390625 -4.609375zm10.527344 10.53125l0 -28.640625l5.484375 0l0 28.640625l-5.484375 0zm24.769531 0l0 -3.109375q-1.140625 1.65625 -2.984375 2.625q-1.84375 0.953125 -3.890625 0.953125q-2.09375 0 -3.765625 -0.921875q-1.65625 -0.921875 -2.40625 -2.578125q-0.734375 -1.65625 -0.734375 -4.59375l0 -13.125l5.5 0l0 9.53125q0 4.375 0.296875 5.375q0.296875 0.984375 1.09375 1.5625q0.8125 0.5625 2.046875 0.5625q1.40625 0 2.515625 -0.765625q1.109375 -0.765625 1.515625 -1.90625q0.421875 -1.15625 0.421875 -5.609375l0 -8.75l5.484375 0l0 20.75l-5.09375 0zm8.839844 -5.921875l5.515625 -0.84375q0.34375 1.609375 1.421875 2.4375q1.078125 0.828125 3.0 0.828125q2.140625 0 3.203125 -0.78125q0.734375 -0.546875 0.734375 -1.46875q0 -0.625 -0.390625 -1.03125q-0.421875 -0.390625 -1.84375 -0.71875q-6.640625 -1.46875 -8.421875 -2.671875q-2.453125 -1.6875 -2.453125 -4.671875q0 -2.703125 2.125 -4.53125q2.125 -1.84375 6.609375 -1.84375q4.25 0 6.3125 1.390625q2.078125 1.390625 2.859375 4.109375l-5.171875 0.953125q-0.328125 -1.21875 -1.265625 -1.859375q-0.921875 -0.640625 -2.640625 -0.640625q-2.171875 0 -3.109375 0.609375q-0.625 0.421875 -0.625 1.109375q0 0.578125 0.546875 1.0q0.75 0.546875 5.125 1.546875q4.390625 0.984375 6.125 2.4375q1.71875 1.453125 1.71875 4.078125q0 2.84375 -2.390625 4.90625q-2.375 2.046875 -7.046875 2.046875q-4.234375 0 -6.703125 -1.71875q-2.46875 -1.71875 -3.234375 -4.671875zm33.69922 -14.828125l0 4.375l-3.75 0l0 8.359375q0 2.546875 0.09375 2.96875q0.109375 0.421875 0.484375 0.703125q0.390625 0.265625 0.9375 0.265625q0.765625 0 2.203125 -0.53125l0.46875 4.25q-1.90625 0.828125 -4.328125 0.828125q-1.484375 0 -2.6875 -0.5q-1.1875 -0.5 -1.75 -1.28125q-0.546875 -0.796875 -0.765625 -2.140625q-0.171875 -0.96875 -0.171875 -3.875l0 -9.046875l-2.515625 0l0 -4.375l2.515625 0l0 -4.109375l5.515625 -3.203125l0 7.3125l3.75 0zm15.8203125 14.140625l5.46875 0.921875q-1.0625 3.015625 -3.34375 4.59375q-2.265625 1.5625 -5.6875 1.5625q-5.40625 0 -8.0 -3.53125q-2.0625 -2.84375 -2.0625 -7.15625q0 -5.15625 2.6875 -8.078125q2.703125 -2.921875 6.828125 -2.921875q4.625 0 7.296875 3.0625q2.6875 3.0625 2.5625 9.359375l-13.75 0q0.0625 2.453125 1.328125 3.8125q1.28125 1.34375 3.171875 1.34375q1.28125 0 2.15625 -0.703125q0.890625 -0.703125 1.34375 -2.265625zm0.3125 -5.546875q-0.0625 -2.375 -1.234375 -3.609375q-1.171875 -1.25 -2.859375 -1.25q-1.796875 0 -2.96875 1.3125q-1.171875 1.3125 -1.140625 3.546875l8.203125 0zm15.167969 12.15625l-5.484375 0l0 -20.75l5.09375 0l0 2.953125q1.3125 -2.09375 2.359375 -2.75q1.046875 -0.671875 2.375 -0.671875q1.875 0 3.609375 1.046875l-1.703125 4.78125q-1.390625 -0.90625 -2.578125 -0.90625q-1.15625 0 -1.953125 0.640625q-0.796875 0.640625 -1.265625 2.296875q-0.453125 1.65625 -0.453125 6.953125l0 6.40625zm8.378906 -5.921875l5.515625 -0.84375q0.34375 1.609375 1.421875 2.4375q1.078125 0.828125 3.0 0.828125q2.140625 0 3.203125 -0.78125q0.734375 -0.546875 0.734375 -1.46875q0 -0.625 -0.390625 -1.03125q-0.421875 -0.390625 -1.84375 -0.71875q-6.640625 -1.46875 -8.421875 -2.671875q-2.453125 -1.6875 -2.453125 -4.671875q0 -2.703125 2.125 -4.53125q2.125 -1.84375 6.609375 -1.84375q4.25 0 6.3125 1.390625q2.078125 1.390625 2.859375 4.109375l-5.171875 0.953125q-0.328125 -1.21875 -1.265625 -1.859375q-0.921875 -0.640625 -2.640625 -0.640625q-2.171875 0 -3.109375 0.609375q-0.625 0.421875 -0.625 1.109375q0 0.578125 0.546875 1.0q0.75 0.546875 5.125 1.546875q4.390625 0.984375 6.125 2.4375q1.71875 1.453125 1.71875 4.078125q0 2.84375 -2.390625 4.90625q-2.375 2.046875 -7.046875 2.046875q-4.234375 0 -6.703125 -1.71875q-2.46875 -1.71875 -3.234375 -4.671875z" fill-rule="nonzero"></path></g></svg>

